<?xml version="1.0" encoding="utf-8"?>
<!-- Generator: Adobe Illustrator 27.4.0, SVG Export Plug-In . SVG Version: 6.00 Build 0)  -->
<svg version="1.1" id="Layer_1" xmlns="http://www.w3.org/2000/svg" xmlns:xlink="http://www.w3.org/1999/xlink" x="0px" y="0px"
	 viewBox="0 0 72 96" style="enable-background:new 0 0 72 96;" xml:space="preserve">
<style type="text/css">
	.st0{fill:#E4E4E4;}
	.st1{fill:none;stroke:#A9A9A9;stroke-width:3;stroke-miterlimit:10;}
</style>
<path class="st0" d="M69.6,92.2H3.3c-1.1,0-1.3-0.3-1.2-1.3c0.1-2.5,0-5.1,0-7.6C3.9,81.8,6.3,81.5,8,80c1.3-1.2,2.9-2.1,4.4-3
	c0.9-0.5,1.8-0.9,2.4-1.8l5.7-7.5c0.2-0.3,0.4-0.5,0.3-0.8c-1.1-2.4-0.4-5.5-2.8-7.4c-0.3-0.3-0.6-0.7-0.7-1.1c-1-2.7-2-5.3-2.8-8
	c-0.7-2.2,0.1-3.9,2-4.9c0.4-0.2,0.4-0.4,0.3-0.7c-0.9-3-0.5-6-1-9C14.9,30,16.3,25,20.1,20.6c0.2-0.2,0.4-0.5,0.3-0.7
	c-0.2-0.9,0.4-1.1,1-1.2c0.8-0.2,1.5-0.6,2.1-1.1c0.9-0.6,1.7-1.4,2.7-1.6c3.6-0.7,7.1-2.1,10.8-2.3c3.2-0.2,6.4-0.7,9.1,1.7
	c0.3,0.3,0.8,0.5,1.3,0.4c0.8-0.1,1.4,0.2,2,0.6c2.2,1.6,4.4,3.2,6.8,4.4c0.6,0.3,1.1,0.7,1.3,1.4c0.6,1.7,1.5,3.2,2.2,5
	c1.1,3.1,0.4,6.2,0,9.2c-0.5,3.3-1.1,6.6-1.2,10c0,0.4,0,0.8,0.3,1.1c1.6,1.5,1.3,3.3,0.5,5.1c-0.9,2-1.6,4.1-2.7,6
	c-0.5,0.9-0.4,2.5-1.6,2.7c-1.7,0.3-1.9,1.5-2.2,2.8c-0.4,1.3-0.8,2.6-1.3,3.9c-0.5,1.5-1,3.1-1,4.7c-0.1,1.2,0.4,2,1.6,2.1
	c5.6,0.8,10.8,3.3,16.3,4.3c1,0.2,1.2,0.7,1.2,1.7L69.6,92.2L69.6,92.2z"/>
<path class="st1" d="M7.2,2.5H65c2.7,0,4.9,2.2,4.9,4.9v81.3c0,2.7-2.2,4.9-4.9,4.9H7.2c-2.7,0-4.9-2.2-4.9-4.9V7.4
	C2.3,4.7,4.5,2.5,7.2,2.5z"/>
</svg>
